<svg xmlns="http://www.w3.org/2000/svg" width="256" height="256" viewBox="0 0 256 256"><path d="M0 0h256v256H0z" fill="none"/><path d="M51.75 15.5H52l.019.879c.167 5.192 1.862 8.495 5.603 12.025.457.418.929.813 1.409 1.206 3.543 3.031 5.321 7.059 5.973 11.6.594 4.116 1.616 7.4 4.996 10.04l-.25-.922c-.505-2.356-.314-4.497.25-6.813.684-2.816.728-5.444 0-8.266 1.6.4 2.942 1.206 3.897 2.563.859 1.508 1.135 2.627 1.128 4.37l-.003.982-.006 1.022-.003 1.034q-.004 1.264-.012 2.528l.391-.228c22.216-12.915 46.648-17.982 76.637-12.042a149 149 0 0 1 4.471 1.272l.726.215c9.675 2.921 18.289 7.92 26.774 13.285.359-2.01.335-4.048.38-6.083.139-4.849 1.308-8.961 4.713-12.54 2.31-2.127 2.31-2.127 3.657-2.127l-.146.459A86 86 0 0 0 192 32l-.161.565c-.78 3.222-.601 6.628.661 9.685l.257.623c.611 1.327 1.406 2.504 2.228 3.705 2.234 3.271 3.358 6.286 3.313 10.266v.813c-.007 1.259-.054 2.468-.235 3.715-.093.845-.107 1.049.327 1.814l.58.533a23.6 23.6 0 0 1 2.547 2.938l.571.775.412.568.212-.568c1.526-3.898 4.41-7.817 8.208-9.777 1.074-.456 1.904-.704 3.08-.654l-.781 1.234-.484.765a46 46 0 0 1-1.282 1.859c-1.44 2.14-1.952 4.687-2.023 7.23l-.029.908-.026.94q-.026.92-.055 1.84l-.026.891c-.04.746-.131 1.46-.242 2.198-.13 1.203.256 1.91.995 2.837a121 121 0 0 1 .697.967l.374.521c9.78 14.281 14.767 33.026 14.698 50.216q-.003 1.19.003 2.379c.004 4.659-.262 9.313-1.006 13.918l-.128.803c-3.611 21.93-14.565 43.911-31.935 58.243l-.795.514c-.499.417-.682.637-.829 1.276a25 25 0 0 0-.017 1.96c-.037 2.903-.484 5.363-2.596 7.529-1.776 1.628-3.658 3.006-5.671 4.319-2.084 1.295-2.084 1.295-3.592 3.152-.076 1.404-.076 1.404.25 2.75 2.153.718 4.214.233 6.249-.622a12.8 12.8 0 0 0 2.751-1.878l.5.25c-2.6 4.792-6.784 7.716-11.95 9.29-3.113.817-6.099 1.027-9.312 1.108-4.275.122-8.586.538-12.738 1.602 1.046-1.163 2.23-1.899 3.563-2.703 4.248-2.642 6.837-5.678 8.187-10.547q.138-.747.25-1.5l-.418.164-1.956.758-.722.281c-1.261.483-2.506.908-3.813 1.245-1.959.515-3.067 1.357-4.43 2.872-1.067 1.102-2.286 1.771-3.659 2.431l-.654.328c-3.236 1.351-7.382 1.065-10.607-.117-2.607-.745-5.275.294-7.739 1.125-.801.263-1.608.488-2.421.711l-.831.23c-2.497.599-4.981.815-7.544.802l-.891-.004c-4.808-.069-9.29-1.102-13.565-3.326l.75-.75a78 78 0 0 0-4.606-1.413c-17.674-4.907-33.093-13.814-46.097-26.759l-.534-.531A63 63 0 0 1 54 195.75l-.358-.413c-1.518-1.754-2.978-3.541-4.34-5.421a126 126 0 0 0-.63-.86c-9.62-13.025-15.671-28.555-17.906-44.556l-.077-.551c-.618-4.487-.735-8.959-.735-13.484q-.002-1.184-.01-2.369c-.013-4.525.32-8.951 1.119-13.409l.166-.931c2.189-11.989 6.505-23.678 12.85-34.1l.443-.728c.601-.973 1.201-1.923 1.921-2.813.826-1.043 1.306-1.686 1.313-3.043-.28-2.178-1.135-4.268-1.953-6.29C45.5 66 45.5 66 45.5 65.5c2.527.421 4.897 1.448 6.75 3.25l.25.5c.357-3.071-1.645-5.697-3.261-8.117-.859-1.289-1.677-2.581-2.411-3.946l-.456-.848c-1.672-3.775-1.285-8.55.172-12.338a59 59 0 0 1 1.956-4.252h.5l.074.769c.465 4.444 2.089 8.102 4.676 11.73l.5.25-.25-.75a30.6 30.6 0 0 1 .375-7.766c.735-4.231.197-7.114-2.311-10.704L51.5 32.5l-.996-1.383a111 111 0 0 0-.651-.894C47.98 27.65 47.686 25.104 48 21.999c.576-2.492 1.946-4.696 3.75-6.5" fill="#021c3b"/><path d="M51.75 15.5H52l.019.879c.167 5.192 1.862 8.495 5.603 12.025.457.418.929.813 1.409 1.206 3.543 3.031 5.321 7.059 5.973 11.6.594 4.116 1.616 7.4 4.996 10.04l-.25-.922c-.505-2.356-.314-4.497.25-6.813.684-2.816.728-5.444 0-8.266 1.6.4 2.942 1.206 3.897 2.563.859 1.508 1.135 2.627 1.128 4.37l-.003.982-.006 1.022-.003 1.034q-.004 1.264-.012 2.528l.391-.228c22.216-12.915 46.648-17.982 76.637-12.042a149 149 0 0 1 4.471 1.272l.726.215c9.675 2.921 18.289 7.92 26.774 13.285.359-2.01.335-4.048.38-6.083.139-4.849 1.308-8.961 4.713-12.54 2.31-2.127 2.31-2.127 3.657-2.127l-.146.459A86 86 0 0 0 192 32l-.161.565c-.78 3.222-.601 6.628.661 9.685l.257.623c.611 1.327 1.406 2.504 2.228 3.705 2.234 3.271 3.358 6.286 3.313 10.266v.813c-.007 1.259-.054 2.468-.235 3.715-.093.845-.107 1.049.327 1.814l.58.533a23.6 23.6 0 0 1 2.547 2.938l.571.775.412.568.212-.568c1.526-3.898 4.41-7.817 8.208-9.777 1.074-.456 1.904-.704 3.08-.654l-.781 1.234-.484.765a46 46 0 0 1-1.282 1.859c-1.423 2.116-1.963 4.65-2.006 7.169-.209 9.303-2.729 15.482-8.613 22.646-2.556 3.126-4.304 6.362-5.796 10.106a338 338 0 0 1-1.007 2.48c-1.194 2.818-1.194 2.818-2.264 5.684-.267.556-.267.556-1.13.888q-.528.123-1.06.231l-.527.121c-1.094.245-2.19.421-3.301.567l.158-.391c3.225-7.992 6.412-16.006 9.343-24.11a13 13 0 0 0-1.893 1.097l-.503.348-.525.366-1.073.743-.522.361c-.903.623-1.817 1.23-2.733 1.833-.346-.693-.181-1.085-.038-1.844l.157-.857.175-.939c.705-3.934 1.217-7.881 1.69-11.85q.127-1.06.258-2.12A890 890 0 0 0 191 67l.089-.772c.303-2.675.487-5.298.458-7.994v-.924c.02-1.555.02-1.555-.296-3.06l-.531.586q-1.104 1.212-2.219 2.414l-.514.557c-3.045 3.175-6.985 5.593-10.556 8.133a290 290 0 0 0-9.507 7.044 66 66 0 0 1-2.424 1.766c.513-1.629 1.124-3.197 1.797-4.766l.279-.656q.336-.79.674-1.579c-7.027 3.463-13.359 8.431-19.448 13.309l-.615.488-.519.417c-.418.287-.418.287-.918.287q-.238-.999-.469-2l-.132-.549c-.781-3.412-.995-6.809-.978-10.295l.001-.579c.014-3.979.381-7.584 1.827-11.328-5.176 2.389-9.843 6.415-13.975 10.279a79 79 0 0 1-1.948 1.752c-1.266 1.134-2.468 2.332-3.672 3.531l-.596.592c-.762.764-1.494 1.51-2.164 2.357l-.394.49h-.5q-.3-1.562-.594-3.125l-.168-.874c-.748-3.982-1.073-7.835-1.145-11.876l-.029-1.355a902 902 0 0 1-.064-3.27l-1.187 1.065-.667.599c-1.814 1.647-3.372 3.419-4.896 5.336l-.657.805c-2.454 3.027-4.527 6.274-6.389 9.695-.359.658-.67 1.217-1.204 1.75a634 634 0 0 1-3-8.25c-3.124 3.01-4.929 7.013-6.5 11a11.4 11.4 0 0 1-1.996-1.209l-.578-.427-.614-.458-.641-.475a708 708 0 0 1-3.937-2.947c-6.22-4.678-12.656-9.05-19.101-13.409l-2.305-1.56-.451-.305a216 216 0 0 1-6.377-4.46c-4.567 11.868-4.524 25.218-5 37.75q-.421-.356-.841-.714l-.473-.402c-4.527-3.991-6.08-10.269-7.192-15.929-.474-2.395-1.083-4.748-2.06-6.991C45.5 66 45.5 66 45.5 65.5c2.527.421 4.897 1.448 6.75 3.25l.25.5c.357-3.071-1.645-5.697-3.261-8.117-.859-1.289-1.677-2.581-2.411-3.946l-.456-.848c-1.672-3.775-1.285-8.55.172-12.338a59 59 0 0 1 1.956-4.252h.5l.074.769c.465 4.444 2.089 8.102 4.676 11.73l.5.25-.25-.75a30.6 30.6 0 0 1 .375-7.766c.735-4.231.197-7.114-2.311-10.704L51.5 32.5l-.996-1.383a111 111 0 0 0-.651-.894C47.98 27.65 47.686 25.104 48 21.999c.576-2.492 1.946-4.696 3.75-6.5" fill="#b2417a"/><path d="M44.5 121c2.71.383 5.221.932 7.737 2.028q.525.227 1.057.438c3.184 1.281 4.497 2.918 6.089 5.892.683 1.195 1.491 2.304 2.289 3.424l.474.669q.55.776 1.104 1.55l-.5.25a30 30 0 0 1-1.703-.797c-1.728-.843-3.438-1.449-5.297-1.953 1.546 2.235 3.089 4.438 4.863 6.499.387.5.387.5.387 1l-.919.103-3.44.39-1.477.167c-3.078.344-6.122.757-9.164 1.341 2.025 1.913 4.067 3.766 6.25 5.5l.855.691a200 200 0 0 0 5.803 4.513l.52.393.463.347c.359.305.359.305.609.805l-.821.323c-4.001 1.584-7.964 3.255-11.929 4.927a107 107 0 0 0 5.547 3.156l.855.46q2.436 1.306 4.891 2.574c1.992 1.029 3.97 2.074 5.91 3.201l.535.307c.785.465 1.248.781 1.762 1.552l-.826.276-.546.182-1.204.401q-1.601.532-3.199 1.075l-.615.208q-.587.199-1.173.401c-.759.257-1.381.458-2.188.458v.5l.519.081c.863.2 1.611.517 2.422.873l.498.218q.812.357 1.623.719l.565.25c14.485 6.421 14.485 6.421 18.873 9.609-.625.625-1.142.75-1.982 1.024l-.901.296-.946.306-1.841.602-.828.268c-.679.23-1.341.482-2.003.755.711.473 1.289.718 2.089.999l.822.294.886.317a100 100 0 0 1 8.943 3.779q1.193.567 2.392 1.123c9.285 4.352 9.285 4.352 11.87 7.736l-.896.193c-2.058.447-4.101.893-6.104 1.558.913.75 1.924 1.258 2.969 1.797a128 128 0 0 1 4.89 2.691 99 99 0 0 0 1.963 1.101l.547.302q.523.288 1.049.573c.908.502 1.642 1.008 2.332 1.786-2.834 2.926-2.834 2.926-4.5 4 .876 2.117 3.489 3.049 5.477 3.895 3.004 1.235 6.106 1.937 9.273 2.605-.354 1.08-.884 1.751-1.656 2.578l-.619.669-.475.502c5.518 1.595 12.733-.349 17.858-2.521.642-.229.642-.229 1.642-.229.448.33.448.33.906.781.944.873 1.931 1.516 3.044 2.153.444.255.874.532 1.3.816l-.935.166c-2.172.401-4.264.855-6.346 1.6-7.281 2.54-16.02 2.269-23.044-1.036a94 94 0 0 1-1.425-.73l.75-.75a78 78 0 0 0-4.606-1.413c-17.674-4.907-33.093-13.814-46.097-26.759l-.534-.531A63 63 0 0 1 54 195.75l-.358-.413c-1.518-1.754-2.978-3.541-4.34-5.421a126 126 0 0 0-.63-.86c-9.62-13.025-15.671-28.555-17.906-44.556l-.077-.551c-.67-4.865-.723-9.7-.704-14.605l.003-1.709q.004-2.067.012-4.135l.25 1 .719.037c2.15.117 4.293.274 6.438.463 2.945.257 5.89.398 8.844.5a38 38 0 0 0-1.156-3.094l-.338-.802z" fill="#021c3b"/><path d="m91.984 114.891.53.066c13.405 1.685 28.413 4.111 40.583 10.203l.647.324q.593.302 1.175.626c1.438.749 2.313.61 3.831.141 3.522-.659 6.821-.779 10.302.086.701.193.701.193 1.448.164a39 39 0 0 0 1.406-.969c9.953-6.67 25.953-9.87 37.672-9.797l1.075.003q1.298.004 2.596.012c-.062 1.925-.402 3.292-1.328 4.969-.865 1.686-1.402 3.239-1.703 5.109-1.118 6.929-4.051 15.037-9.752 19.572-4.803 3.461-10.031 4.548-15.859 3.706-3.895-.732-3.895-.732-4.703-1.823l-.185-.502c-.756-1.738-2.107-2.637-3.719-3.531l-.55-.207c-2.24-.922-3.046-3.195-3.95-5.293a93 93 0 0 1-1.337-3.489c-.68-2.074-.68-2.074-2.256-3.464-2.892-.932-6.699-.329-9.406.953-1.387 1.103-1.955 2.557-2.631 4.146-1.445 3.393-2.96 6.472-5.62 9.104l-.502.527c-2.4 2.354-5.775 3.692-8.998 4.473l-.507.133c-2.012.473-4.032.467-6.086.461l-.571-.001c-4.656-.018-8.664-.714-12.836-2.843l-.68-.341c-3.083-1.696-5.665-4.225-7.57-7.159l-.511-.782c-2.16-3.539-3.844-7.778-4.404-11.893l-.09-.644a49 49 0 0 1-.157-1.272c-.181-1.372-.489-1.992-1.588-2.909-1.645-1.87-2.703-3.929-2.599-6.466.1-.534.1-.534.568-1.175 2.158-1.46 5.816-.526 8.266-.219" fill="#1d789a"/><path d="m156.5 36.75.726.215c8.357 2.523 20.202 6.963 26.524 13.285-.044 2.333-1.203 4.533-2.75 6.25h-.5l-.003-.434c.039-4.523.039-4.523-2.039-8.393L178 47.25l-.039.406c-.568 3.921-3.103 7.766-6.17 10.21a59 59 0 0 1-1.462 1.025l-.552.383q-.585.406-1.171.809a600 600 0 0 0-3.074 2.135l-.634.443a273 273 0 0 0-6.051 4.396q-.916.678-1.835 1.352a244 244 0 0 0-6.192 4.666c-.57.425-.57.425-.82.425-.147-9.716 1.756-17.019 6.5-25.5-6.167 1.203-11.661 4.457-16.75 8l-.481.333c-3.684 2.557-7.585 5.304-10.661 8.585-.358.332-.358.332-.858.332-.265-1.308-.298-2.576-.309-3.905l-.007-.704q-.008-1.125-.011-2.25l-.003-.769c-.005-3.729.179-7.239 1.081-10.872q.13-.624.25-1.25c-8.735 2.578-15.475 11.866-20.119 19.235l-.382.515h-.5c-.745-2.172-1.249-4.339-1.673-6.593l-.119-.629-.104-.564c-.089-.484-.089-.484-.354-.964-4.06 4.474-7.438 9.463-10.75 14.5a6.9 6.9 0 0 1-1.328-1.685l-.326-.554-.346-.59c-1.844-3.077-4.026-5.824-6.5-8.422l-.373-.399c-1.14-1.185-2.385-2.146-3.72-3.102-6.038-4.363-6.038-4.363-7.156-8 1.131-1.312 2.527-2.048 4.031-2.875l.836-.462c21.88-11.952 47.407-15.65 76.632-8.161" fill="#021c3b"/><path d="M44.5 121c2.71.383 5.221.932 7.737 2.028q.525.227 1.057.438c3.184 1.281 4.497 2.918 6.089 5.892.683 1.195 1.491 2.304 2.289 3.424l.474.669q.55.776 1.104 1.55l-.5.25a30 30 0 0 1-1.703-.797c-1.728-.843-3.438-1.449-5.297-1.953 1.546 2.235 3.089 4.438 4.863 6.499.387.5.387.5.387 1l-.919.103-3.44.39-1.477.167c-3.078.344-6.122.757-9.164 1.341 2.025 1.913 4.067 3.766 6.25 5.5l.855.691a200 200 0 0 0 5.803 4.513l.52.393.463.347c.359.305.359.305.609.805l-.821.323c-4.001 1.584-7.964 3.255-11.929 4.927a107 107 0 0 0 5.547 3.156l.855.46q2.436 1.306 4.891 2.574c1.992 1.029 3.97 2.074 5.91 3.201l.535.307c.785.465 1.248.781 1.762 1.552l-.826.276-.546.182-1.204.401q-1.601.532-3.199 1.075l-.615.208q-.587.199-1.173.401c-.759.257-1.381.458-2.188.458v.5l.519.081c.863.2 1.611.517 2.422.873l.498.218q.812.357 1.623.719l.565.25c14.485 6.421 14.485 6.421 18.873 9.609-.625.625-1.142.75-1.982 1.024l-.901.296-.946.306-1.841.602-.828.268c-.679.23-1.341.482-2.003.755.711.473 1.289.718 2.089.999l.822.294.886.317a100 100 0 0 1 8.943 3.779q1.193.567 2.392 1.123c9.285 4.352 9.285 4.352 11.87 7.736l-.896.193c-2.058.447-4.101.893-6.104 1.558.913.75 1.924 1.258 2.969 1.797a128 128 0 0 1 4.89 2.691 99 99 0 0 0 1.963 1.101l.547.302q.523.288 1.049.573c.908.502 1.642 1.008 2.332 1.786-2.834 2.926-2.834 2.926-4.5 4 .876 2.117 3.489 3.049 5.477 3.895 3.004 1.235 6.106 1.937 9.273 2.605-.354 1.08-.884 1.751-1.656 2.578l-.619.669-.475.502c5.518 1.595 12.733-.349 17.858-2.521.642-.229.642-.229 1.642-.229.448.33.448.33.906.781.944.873 1.931 1.516 3.044 2.153.444.255.874.532 1.3.816l-.935.166c-2.172.401-4.264.855-6.346 1.6-7.281 2.54-16.02 2.269-23.044-1.036a94 94 0 0 1-1.425-.73l.75-.75-.25-.5.797-.188c.906-.254 1.503-.676 2.203-1.313a49 49 0 0 0-3.781-1.563c-3.367-1.294-6.168-3.094-8.989-5.317a69 69 0 0 0-2.108-1.546L96 217.25v-.5l.877-.403 1.154-.535.576-.264c1.119-.521 2.135-1.084 3.143-1.799-1.446-.851-2.933-1.601-4.438-2.344-2.881-1.427-2.881-1.427-4.234-2.203-2.84-1.58-5.973-2.761-9.078-3.703.779-.859 1.637-1.425 2.641-1.984l.86-.491c1.217-.661 2.485-1.214 3.749-1.774l-.613-.285-1.812-.845-2.071-.965c-2.939-1.369-2.939-1.369-4.348-2.059-6.187-3.03-12.871-5.185-19.406-7.346.709-.959 1.441-1.631 2.406-2.328a104 104 0 0 0 4.094-3.172 441 441 0 0 0-3.369-1.687q-.63-.313-1.26-.629a103 103 0 0 0-9.215-4.059l-.503-.194c-3.7-1.427-3.7-1.427-7.544-2.353l-.547-.098-1.312-.23v-.5c2.803-2.287 6.077-3.875 9.5-5-.593-.657-1.213-1.044-1.988-1.466l-.758-.417-.817-.446c-4.594-2.54-9.051-5.286-13.437-8.171.938-1.018 1.898-1.716 3.094-2.406l.544-.318c2.285-1.307 4.677-2.405 7.066-3.506.596-.28.596-.28 1.296-.769l-.407-.281c-5.231-3.623-9.882-7.443-14.343-11.97.25-.5.25-.5.886-.717l.858-.217.968-.246q.527-.13 1.055-.258l.534-.133a150 150 0 0 1 8.372-1.805l.521-.098c3.027-.566 3.027-.566 4.307-.527l-.459-.57c-3.445-4.339-5.936-9.073-8.042-14.179" fill="#b4427b"/><path d="M194.5 172.25c-.616.616-1.138.758-1.958 1.049-1.751.658-3.343 1.492-4.964 2.42l-.795.444a42 42 0 0 0-4.295 2.767c-.488.32-.488.32-.988.32a41 41 0 0 0 3.625 3.781l.52.483L187.25 185q1.001.928 2 1.859l.473.439a64 64 0 0 1 2.874 2.838c.455.41.833.639 1.403.863.492-.06.492-.06.977-.273l.559-.217.589-.245.609-.247c2.576-1.072 4.725-2.356 6.751-4.289.515-.478.515-.478 1.265-.978-.168 2.917-1.457 5.436-3.5 7.5-1.926 1.659-4.103 2.724-6.387 3.8-1.778.898-2.83 2.118-3.582 3.966-.479 1.611-.585 3.837-.154 5.466.668 2.822.031 6.528-1.377 9.018-1.683 2.52-4.411 4.22-6.908 5.848-2.084 1.295-2.084 1.295-3.592 3.152-.076 1.404-.076 1.404.25 2.75 2.153.718 4.214.233 6.249-.622a12.8 12.8 0 0 0 2.751-1.878l.5.25c-2.6 4.792-6.784 7.716-11.95 9.29-3.113.817-6.099 1.027-9.312 1.108-4.275.122-8.586.538-12.738 1.602 1.046-1.163 2.23-1.899 3.563-2.703 4.307-2.679 6.738-5.646 8.187-10.547l.233-.738c.422-1.474.577-2.879.642-4.403.199-4.51 1.999-7.715 5.125-10.86l.514-.533c.864-.886 1.754-1.713 2.736-2.467h.5a86 86 0 0 1-1.078 3.8c-1.062 3.132-1.062 3.132-.578 6.325.346.647.346.647.906.875 1.337.087 2.175.127 3.25-.75 1.627-1.605 2.635-3.491 3-5.75l.091-.529c.169-1.859-.797-3.015-1.841-4.471l-.632-.924q-.69-1.014-1.389-2.022a377 377 0 0 1-1.482-2.156l-.371-.543-.7-1.026a36 36 0 0 0-1.926-2.579c-1.06.421-1.812 1.197-2.625 1.969l-.485.457a243 243 0 0 0-4.265 4.168l-.633.63c-1.1 1.103-2.152 2.221-3.143 3.424l-.349.353h-.5q-.127-.711-.25-1.422l-.141-.8c-.195-1.387-.195-1.387-.11-2.028.431-.544.431-.544 1.016-1.078.752-.71 1.47-1.416 2.14-2.203 1.223-1.42 2.544-2.704 3.964-3.926q.786-.68 1.565-1.367l1.018-.894.499-.443.474-.415.425-.375c.4-.299.4-.299 1.15-.549v-.5q-1.282.116-2.563.234l-.734.066-.708.066-.65.059c-.549.069-1.063.177-1.595.324 2.397-6.757 10.313-12.877 16.526-15.874 3.462-1.448 7.013-1.761 10.725-1.626" fill="#b1407a"/><path d="M139.25 181.25c3.929.197 7.388 2.379 10.059 5.168 3.137 3.626 5.211 8.51 6.541 13.071q.157.533.323 1.063c1.738 5.628 2.015 12.314-.546 17.738A16 16 0 0 1 154.5 220l-.578.813c-2.453 2.51-5.293 3.27-8.719 3.313l-.702.014c-2.414-.022-4.462-.941-6.235-2.588-3.072-3.183-3.781-7.336-4.179-11.569-.721-7.528-2.742-14.616-6.934-21.008-.279-.855.296-1.623.678-2.393l.373-.71.405-.774.421-.799.427-.814 1.043-1.985c3.696.681 6.685 3.728 8.749 6.724 2.21 3.451 3.41 7.159 4.579 11.057l.406 1.336c.992 3.263.992 3.263 1.265 4.383.087-3.663.065-7.168-.75-10.75l-.211-.943c-1.063-4.303-2.601-8.5-5.289-12.057" fill="#b2417b"/><path d="M208.75 76c.685.651 1.224 1.285 1.721 2.088l.396.637.415.681.436.713q.645 1.064 1.282 2.131l.346.577c3.674 6.177 9.404 16.325 9.404 23.673l-.623.114c-2.692.514-5.338 1.175-7.991 1.861q-1.161.3-2.323.598-3.522.903-7.037 1.828l-1.606.421q-.734.194-1.468.391l-.872.23-.749.2c-.581.107-.581.107-1.081-.143l1-4.25-1.203.313c-1.431.358-2.869.678-4.313.985l-.631.135-.597.125-.533.113c-.473.079-.473.079-1.223.079.16-.947.432-1.776.797-2.664l.339-.83.364-.881.375-.91q.38-.92.762-1.839.487-1.18.966-2.365c1.507-3.681 3.342-6.63 5.874-9.683 3.586-4.358 6.267-8.885 7.773-14.328" fill="#393176"/><path d="m183.047 120.156.62-.001c1.316.025 2.362.123 3.333 1.095.917 6.231-2.255 14.199-5.79 19.276-2.467 3.159-5.704 5.31-9.71 5.974-4.109.329-8.808.347-12.25-2.25-3.648-3.129-5.912-8.051-6.578-12.807-.052-.86.078-1.443.438-2.224 3.039-3.41 8.842-4.728 13.14-5.719h.5c-.606 1.934-1.37 3.78-2.172 5.641l-.202.469c-.914 2.128-1.874 4.223-2.938 6.28-.688 1.35-1.313 2.729-1.938 4.11a92 92 0 0 0 .703.86l.396.483c.403.471.403.471 1.151.657 2.574-3.985 4.934-8.072 7.234-12.219l.297-.535.304-.549.316-.57.76-1.373a768 768 0 0 1 1.322-2.379l.421-.765.398-.711.352-.635c.442-.66.883-.957 1.65-1.162 2.742-.499 5.447-.945 8.241-.945" fill="#011b3a"/><path d="m100 36.75-.5.25a524 524 0 0 0 3.719 12.813q.5 1.65.998 3.301l.228.75.21.697.184.608c.168.61.316 1.207.411 1.833-.262.382-.262.382-.688.735-3.973 3.667-6.861 8.777-9.813 13.265a6.9 6.9 0 0 1-1.328-1.685l-.326-.554-.346-.59c-1.844-3.077-4.026-5.824-6.5-8.422l-.373-.399c-1.14-1.185-2.385-2.146-3.72-3.102-6.038-4.363-6.038-4.363-7.156-8 1.131-1.312 2.527-2.048 4.031-2.875l.836-.462C95.59 36.323 95.59 36.323 100 36.75" fill="#021c3b"/><path d="M225.5 124h.25q.018 2.505.028 5.011l.01 1.696c.036 4.721-.255 9.354-.787 14.043-2.38-.157-4.723-.484-7.078-.844q-1.129-.171-2.257-.339l-.56-.084a173 173 0 0 0-5.654-.736l-.644-.078-.55-.063c-.564-.117-1.004-.329-1.506-.606l.442-.304c2.35-1.629 4.667-3.298 6.809-5.196-5.229-.064-10.3.856-15.418 1.824a1045 1045 0 0 1-4.153.776q-.72.135-1.438.272l-.871.162-.767.145c-.606.071-.606.071-1.106-.179l.385-.835c1.806-3.963 3.173-7.98 4.365-12.165 4.3-.386 8.602-.729 12.907-1.058l2.707-.208 2.133-.164 1.47-.114c6.596-.503 6.596-.503 9.159-.472l.559.004q.658.005 1.315.012z" fill="#393176"/><path d="M117.5 123.5a26 26 0 0 1-1.056 2.375l-.333.654-.358.702-.375.736-1.619 3.168c-2.564 5.016-5.173 9.998-8.009 14.865-1.375-.132-2.441-.475-3.672-1.094l-.525-.264c-5.139-2.72-7.717-7.963-9.379-13.309-.807-2.699-1.528-5.375-1.565-8.208l-.011-.521c.025-1.173.33-1.78 1.152-2.604 6.053-3.026 19.653 1.877 25.75 3.5" fill="#011b3a"/><path d="M194.5 172.25c-.616.616-1.138.758-1.958 1.049-1.751.658-3.343 1.492-4.964 2.42l-.795.444a42 42 0 0 0-4.295 2.767c-.488.32-.488.32-.988.32a41 41 0 0 0 3.625 3.781l.52.483L187.25 185q1.001.928 2 1.859l.472.439a77 77 0 0 1 2.898 2.838c.415.419.415.419 1.129.863v.5l-.4.179c-4.369 1.966-7.769 4.02-9.658 8.659-.627 2.163-.878 4.438-1.191 6.663l-.204-.426c-1.232-2.392-2.898-4.583-4.428-6.792a361 361 0 0 1-1.121-1.634l-.371-.543-.7-1.026A36 36 0 0 0 173.75 194c-1.06.421-1.812 1.197-2.625 1.969l-.485.457a243 243 0 0 0-4.265 4.168l-.633.63c-1.1 1.103-2.152 2.221-3.143 3.424l-.349.352h-.5q-.127-.711-.25-1.422l-.141-.8c-.195-1.387-.195-1.387-.11-2.028.431-.544.431-.544 1.016-1.078.752-.71 1.47-1.416 2.14-2.203 1.223-1.42 2.544-2.704 3.964-3.926q.786-.68 1.565-1.367l1.018-.894.499-.443.474-.415.425-.375c.4-.299.4-.299 1.15-.549v-.5q-1.282.116-2.563.234l-.734.066-.708.066-.65.059c-.549.069-1.063.177-1.595.324 2.397-6.757 10.313-12.877 16.526-15.874 3.462-1.448 7.013-1.761 10.725-1.626M118 33c.519.519.373 1.597.421 2.314l.045.642q.073 1.038.143 2.075l.248 3.521q.214 3.002.502 5.997.078.85.14 1.7l.047.551c.043.845.031 1.337-.46 2.04l-.572.487c-1.111 1.011-2.037 2.084-2.974 3.257a33 33 0 0 1-1.48 1.681c-2.075 2.305-3.838 4.953-5.492 7.572l-.318.413h-.5c-.745-2.172-1.249-4.339-1.673-6.593l-.119-.629-.104-.564c-.089-.484-.089-.484-.354-.964h-.5c-3.498-11.398-3.498-11.398-4.578-15.234l-.205-.723c-.887-3.203-.887-3.203-.467-4.043.518-.198.518-.198 1.209-.388l.781-.215.853-.225.877-.234C113.539 32.826 113.539 32.826 118 33" fill="#383175"/><path d="m86.668 152.449.603-.005q.959-.006 1.917-.006l.664-.001c3.047.004 5.995.104 8.994.69.745.14 1.493.257 2.243.372 6.555 1.042 13.783 2.614 19.67 5.789 1.022.523 1.982.674 3.117.774l.551.059q.661.068 1.324.129c-1.005-1.266-1.946-2.223-3.374-2.998L122 157v-.5c4.473-1.44 8.146-1.397 12.469.672 1.329.693 2.606 1.465 3.885 2.245 1.884 1.143 3.79 2.168 5.897 2.833-.113 2.368-.929 4.204-2.692 5.827-3.867 2.927-9.082 3.623-13.788 3.054-3.27-.496-6.464-1.62-9.271-3.382.765-.622 1.536-1.025 2.438-1.422l.746-.331.566-.246-.532-.418c-4.926-3.994-4.926-3.994-5.468-6.332l-.834-.111-1.26-.17-.729-.098a429 429 0 0 1-4.923-.702c-10.465-1.544-20.972-2.694-31.504-3.669l.25-.5c.452-.144.452-.144 1.039-.259l.65-.129.685-.129.662-.131c2.126-.411 4.216-.641 6.381-.654" fill="#393276"/><path d="m126.375 32.438.855-.007c3.265.011 6.517.307 9.77.569a1213 1213 0 0 1-1.401 15.717q-.094.979-.185 1.957a162 162 0 0 1-.479 4.55q-.075.642-.134 1.286c-.19 2.014-.395 3.553-1.953 4.954-.547.441-1.112.848-1.692 1.243-.661.476-1.236 1.029-1.827 1.589-1.021.954-1.021.954-1.579.954-.265-1.308-.298-2.576-.309-3.905l-.007-.704q-.008-1.125-.011-2.25l-.003-.769c-.005-3.729.179-7.239 1.081-10.872q.13-.624.25-1.25a18.55 18.55 0 0 0-6.659 3.523c-.846.682-1.719 1.327-2.591 1.976-.635-5.995-1.186-11.979-1.5-18 2.792-.394 5.556-.554 8.375-.563" fill="#021d3b"/><path d="M66.25 67c1.025.326 1.807.655 2.672 1.297a42 42 0 0 0 2.656 1.781c1.641 1.034 3.156 2.216 4.672 3.422l.712.564c1.5 1.207 2.925 2.479 4.332 3.792a35 35 0 0 0 1.492 1.292c.588.496 1.069.968 1.558 1.556a28 28 0 0 0 1.875 2c3.732 3.703 6.625 8.271 9.239 12.799.245.418.504.828.766 1.235l.276.512-.25.5-.461-.459c-1.993-1.905-4.391-3.908-7.039-4.791l.75 5H89c-.318-.41-.318-.41-.676-.98a70 70 0 0 0-2.512-3.599l-.463-.628a78 78 0 0 0-3.282-4.127 75 75 0 0 1-1.599-1.964c-1.181-1.452-2.465-2.803-3.757-4.156a74 74 0 0 1-2.367-2.583 42 42 0 0 0-2.329-2.464l-.373-.37-.892-.879c-.76 2.223-1.191 4.449-1.547 6.766l-.126.814c-.555 3.754-.635 7.476-.639 11.264l-.002.782c-.004 4.192.238 8.283.744 12.442.085.819.099 1.609.07 2.432-6.339-7.741-6.359-21.324-5.515-30.738.204-1.986.516-3.952.859-5.918l.149-.862c.361-1.962.883-3.839 1.507-5.732" fill="#3a3277"/><path d="M137 33c6.355.443 12.631 1.762 18.75 3.5.249 1.113.233 1.836-.119 2.919l-.257.809-.281.85-.559 1.747-.278.862a67 67 0 0 0-.642 2.167l-.166.595q-.147.537-.289 1.075c-.256.917-.335 1.176-1.159 1.726a26 26 0 0 1-.943.425l-1.151.497c-4.508 1.986-8.492 4.606-12.475 7.481a91 91 0 0 1-3.432 2.348c.139-1.75.342-3.484.587-5.223.611-4.338 1.032-8.683 1.413-13.046q.191-2.189.388-4.378.067-.755.132-1.512l.081-.912.07-.802c.08-.628.08-.628.33-1.128" fill="#383175"/><path d="m207.234 158.469 1.006.361 1.586.569c1.942.699 3.888 1.385 5.834 2.07l2.245.791L220 163c-.16 1.023-.376 1.924-.75 2.891-.364.944-.364.944-.598 1.925-.234 1.052-.666 2.009-1.09 2.997l-.294.686c-1.583 3.612-3.379 7.186-5.518 10.502-1.212-.566-2.271-1.25-3.359-2.015l-1.075-.745-.544-.378a112 112 0 0 0-7.941-5.018l-.686-.398-.614-.352c-.502-.325-.867-.666-1.28-1.094l.449-.074 4.623-.766 1.726-.286 2.48-.411.779-.129.728-.121.639-.106a21 21 0 0 0 1.575-.358c-3.838-3.511-8.099-5.994-12.75-8.25l-1.5-.75c.689-.825 1.607-1.24 2.547-1.719 1.07-.55 2.076-1.096 3.047-1.813 1.81-1.137 4.816.588 6.641 1.25M40.5 87l.484.275a43 43 0 0 0 3.888 1.937c4.494 2.05 6.307 4.367 8.07 8.915.619 1.583 1.421 3.04 2.261 4.514q.371.656.74 1.313l.309.542c.246.5.386.96.498 1.504l-.691-.358a98 98 0 0 0-6.168-2.892l-.705-.301c-.937-.473-.937-.473-1.936-.699.925 3.146 2.055 6.197 3.25 9.25-2.775-.509-5.474-1.186-8.188-1.953l-1.192-.334A181 181 0 0 1 33 106.25c.552-2.616 1.349-5.13 2.219-7.656l.311-.91c2.03-5.83 2.03-5.83 3.22-6.934.254-.428.254-.428.456-.893l.232-.505.234-.523.243-.532A251 251 0 0 0 40.5 87" fill="#393176"/><path d="M104.75 174.25c2.941 3.724 4.335 8.867 5.752 13.33 3.772 13.269 3.772 13.269 12.998 22.873 2.053.952 4.002 1.155 6.25 1.297.124 1.955-.116 3.437-1.397 4.978-1.845 1.775-4.063 2.772-6.603 2.772l.75-3.75-1.75.5c-.848.061-.848.061-1.722.058l-.961-.001-.99-.009h-.999c-2.654-.013-2.654-.013-3.579-.296v-.5l.813-.328c1.077-.533 1.905-1.254 2.781-2.063l.397-.366c.588-.554 1.059-1.068 1.51-1.743l-.443-.206c-3.663-1.935-5.711-6.343-7.677-9.771-1.886-3.283-3.868-6.454-6.293-9.367a91 91 0 0 1-.966-1.188c-1.694-2.075-3.574-3.966-5.466-5.858l-.4-.401-1.153-1.147-.68-.674a28 28 0 0 0-1.508-1.329l-.664-.561v-.25c1.575.113 2.688.488 4.063 1.25l.561.305c2.462 1.371 4.6 3.13 6.72 4.971.93.804 1.898 1.52 2.906 2.223l-.238-.782c-1.363-4.603-2.228-9.156-2.012-13.968" fill="#3a3277"/><path d="m30 123.5.25 1 .719.037a187 187 0 0 1 6.406.463c3.121.274 6.244.402 9.375.5l.341.735c.9 1.892 1.873 3.681 3.066 5.406l.335.486a29 29 0 0 0 2.228 2.757c.28.366.28.366.28.866l-.857.156c-5.521 1.008-10.99 2.057-16.393 3.594.833.989 1.671 1.952 2.594 2.86l.521.514.385.376-.25.5c-.578.148-.578.148-1.339.268l-.832.132-.876.132-.862.138c-2.743.425-2.743.425-3.841.33-2.376-3.564-1.282-11.293-1.266-15.406l.003-1.709q.004-2.067.012-4.135" fill="#373175"/><path d="m68.25 184.75.75.25q-.306.236-.623.476a261 261 0 0 0-5.127 4.024 89 89 0 0 0 4.973 1.865l1.397.482 2.16.742c8.013 2.748 8.013 2.748 8.47 3.66l-.255.346c-1.873 2.549-3.67 5.127-5.362 7.799a570 570 0 0 1-1.333 2.094 2435 2435 0 0 0-2.55 4.012c-3.693-.775-8.097-5.986-10.75-8.5l-.548-.514a201 201 0 0 1-1.78-1.705l-.586-.55-.537-.526-.485-.467c-.314-.488-.314-.488-.272-1.137.294-.852.796-1.24 1.458-1.851a92 92 0 0 0 .891-.938l.488-.518.511-.544.537-.569a90 90 0 0 0 2.36-2.576 29.2 29.2 0 0 1 4.353-4.073l.524-.402c.43-.315.881-.6 1.335-.879" fill="#383175"/><path d="M54.411 177.068q.486.198.969.402l.53.218q.843.35 1.683.703l1.161.483c2.532 1.058 5.039 2.152 7.496 3.377l1.028.509q1.238.616 2.472 1.241c-.547.821-.877.917-1.758 1.269-.906.426-1.646 1.065-2.413 1.7l-.53.435c-1.519 1.274-2.848 2.666-4.155 4.152-.754.852-1.527 1.687-2.3 2.522l-.458.504-.426.462-.379.413c-.331.292-.331.292-.831.292l-.219.469c-.281.531-.281.531-.781 1.031-4.36-4.107-8.785-9.863-11.5-15.25.341-.681.771-.855 1.422-1.25a64 64 0 0 0 3.863-2.634 118 118 0 0 1 1.215-.866l.619-.465c1.121-.507 2.17-.109 3.292.283" fill="#021c3b"/><path d="M124.25 125.25c7.791 2.298 7.791 2.298 9 4.5.226 1.618-.149 3.005-.734 4.5l-.236.618c-1.825 4.636-4.13 8.863-8.787 11.091-3.241 1.271-6.571 1.588-10.024 1.556l-.725-.003q-.872-.004-1.744-.012c.335-.903.74-1.687 1.255-2.5l.457-.726.491-.774 1.028-1.635 1.019-1.615a264 264 0 0 0 5.683-9.463 146 146 0 0 1 3.317-5.537" fill="#011b3a"/><path d="M41.25 160.75q2.35 1.356 4.67 2.756c3.25 1.962 6.537 3.856 9.83 5.744-.526.526-.832.658-1.52.907l-.625.234-.668.25a25.5 25.5 0 0 0-5.5 2.889c-.554.379-1.079.693-1.688.971v.5l.796.083c1.909.211 3.654.46 5.454 1.167-.72.767-1.46 1.337-2.344 1.906-1.755 1.148-3.456 2.366-5.156 3.594-.983-.37-1.288-.866-1.776-1.778l-.43-.798-.451-.862-.468-.883c-5.019-9.543-5.019-9.543-5.374-14.18q1.171-.501 2.344-1l.674-.289.644-.274.595-.254c.493-.183.493-.183.993-.183z" fill="#373175"/><path d="M194.5 172.25c-.616.616-1.143.761-1.964 1.052-1.714.644-3.277 1.447-4.864 2.354l-.821.466A57.7 57.7 0 0 0 177.25 183l-.645.561a216 216 0 0 0-1.355 1.189l.853.074c2.559.242 4.936.677 7.397 1.426v.5a37 37 0 0 1-1.781 1.125c-3.316 2.027-6.32 4.287-9.219 6.875l-.385.341c-1.927 1.714-3.757 3.526-5.584 5.346l-.676.672c-1.14 1.143-2.237 2.296-3.263 3.542l-.342.349h-.5q-.127-.711-.25-1.422l-.141-.8c-.195-1.387-.195-1.387-.11-2.028.431-.544.431-.544 1.016-1.078.752-.71 1.47-1.416 2.14-2.203 1.223-1.42 2.544-2.704 3.964-3.926q.786-.68 1.565-1.367l1.018-.894.499-.443.474-.415.425-.375c.4-.299.4-.299 1.15-.549v-.5q-1.282.116-2.563.234l-.734.066-.708.066-.65.059c-.549.069-1.063.177-1.595.324 2.397-6.757 10.313-12.877 16.526-15.874 3.462-1.448 7.013-1.761 10.725-1.626" fill="#b4427b"/><path d="M164.725 156.273c.35.231.689.477 1.026.728-.12 1.181-.674 1.925-1.391 2.828l-.322.416a132 132 0 0 1-.788 1.005l.531-.018c1.508-.029 2.775.082 4.219.517-.129 1.025-.655 1.468-1.391 2.156A29 29 0 0 0 165.5 165v.5l1.75 1c-1.536 2.134-3.716 3.158-6.25 3.75-3.121.334-6.128.08-8.719-1.828-2.594-2.188-2.594-2.188-2.876-3.669-.05-.631-.051-1.136.095-1.753.575-.584 1.272-.889 2-1.25 1.897-1.137 3.56-2.445 4.781-4.313 1.927-2.825 5.74-2.717 8.443-1.165" fill="#393276"/><path d="M92.5 209c.956.15 1.69.432 2.542.887l.74.391.765.41 1.495.793.733.389c1.067.559 2.145 1.097 3.225 1.63-.887 1.032-1.952 1.571-3.14 2.188l-.582.311c-1.431.751-1.431.751-2.278.751 4.182 4.391 9.838 7.082 15.5 9-1.677 1.722-1.677 1.722-2.965 1.834-1.592-.039-3.075-.491-4.598-.928l-.955-.27c-3.458-.988-6.859-2.14-10.232-3.387l-.774-.286a107 107 0 0 1-2.039-.792l-.596-.228c-.533-.222-.533-.222-1.342-.694-.282-.759-.283-1.149-.031-1.921l.351-.723.386-.812.419-.856q.417-.875.832-1.752l.412-.867a70 70 0 0 0 1.444-3.35l.217-.537q.236-.59.47-1.181" fill="#363075"/><path d="M145.19 145.704q.826-.002 1.653-.01c2.971-.012 6.282-.013 8.907 1.556.751.902.795 1.617.735 2.75-.203 1.484-.877 2.503-1.984 3.5l-.531-.25c-.796-.277-1.382-.324-2.219-.25-.668.668-.623 1.133-.734 2.063-.206 1.448-.446 2.53-1.422 3.656a4.08 4.08 0 0 1-2.844.281c-.843-.651-1.2-1.054-1.464-2.094l-.083-.906c-.107-1.087-.206-2.017-.703-3-.862-.431-1.808-.378-2.75-.25-.693.491-.693.491-1.25 1-1.188-.138-1.976-.889-2.75-1.75-.774-1.244-1.283-2.527-1-4 2.11-2.381 5.502-2.297 8.441-2.296" fill="#b3427b"/><path d="M184 72.25h.5c-1.184 8.399-4.685 16.373-8.25 24l-.225.482a501 501 0 0 1-1.572 3.33l-.419.884-.389.807-.342.713c-.303.534-.303.534-.803.784-.043-2.26.092-4.497.25-6.75-3.788 1.671-3.788 1.671-7.5 3.5.354-.952.794-1.799 1.31-2.673l.492-.834.527-.884.27-.454a149 149 0 0 1 11.154-16.176 236 236 0 0 0 3.404-4.417l.395-.524c.654-.859.654-.859 1.199-1.788" fill="#3a3277"/><path d="M82 43.75c.666.625 1.147 1.173 1.539 1.998l.285.588.301.633a138 138 0 0 0 3.19 6.123 329 329 0 0 1 2.031 3.74C92.484 62.776 92.484 62.776 96 68.5c-.068.99-.694 1.71-1.25 2.5a6.9 6.9 0 0 1-1.328-1.685l-.326-.554-.346-.59c-1.844-3.077-4.026-5.824-6.5-8.422l-.373-.399c-1.14-1.185-2.385-2.146-3.72-3.102-6.038-4.363-6.038-4.363-7.156-8 1.158-1.363 2.651-2.103 4.203-2.953l.814-.453q.99-.55 1.983-1.094" fill="#373175"/><path d="M208.75 76c.685.651 1.224 1.285 1.721 2.088l.396.638.414.68.432.706C216.04 87.214 216.04 87.214 217 90l-.25.75-.75-1.469-.422-.826c-.328-.705-.328-.705-.328-1.205l-.567.304q-2.534 1.361-5.071 2.717-1.333.713-2.664 1.429a202 202 0 0 1-6.838 3.472l-.835.411-.775.373-.694.337-.556.207-.5-.25c1.156-1.912 2.378-3.706 3.813-5.422 3.748-4.514 6.619-9.158 8.187-14.828" fill="#021b3a"/><path d="M173.25 44.5c2.329.735 4.377 1.649 6.422 2.985l.608.388a73 73 0 0 1 3.47 2.377c-.09 2.349-1.183 4.512-2.75 6.25h-.5l-.003-.434c.039-4.523.039-4.523-2.039-8.393L178 47.25l-.039.406c-.568 3.921-3.103 7.766-6.17 10.21a58 58 0 0 1-1.462 1.025l-1.116.773-.592.407q-.986.682-1.965 1.374l-.677.477-1.306.919c-.956.67-1.907 1.329-2.922 1.908.15-.716.363-1.253.753-1.871l.319-.512.35-.555c2.696-4.341 5.218-8.787 7.745-13.228l1.52-2.663.48-.841z" fill="#373176"/><path d="m86.668 152.449.603-.005q.959-.006 1.917-.006l.664-.001c3.047.004 5.995.104 8.994.69.745.14 1.493.257 2.243.372 6.777 1.077 14.473 2.678 20.412 6.251v.25c-1.825-.14-3.578-.448-5.366-.83-3.325-.685-6.661-1.185-10.024-1.639l-.92-.126c-9.369-1.279-18.777-2.286-28.191-3.155l.25-.5c.452-.144.452-.144 1.039-.259l.65-.129.685-.129.662-.131c2.126-.411 4.216-.641 6.381-.654" fill="#1d7a9c"/><path d="M162 205.25c.597.733.96 1.427 1.3 2.307l.303.775.319.824c.782 1.991 1.579 3.97 2.453 5.922l.247.551c.296.654.593 1.304.93 1.938.329.72.239 1.406.198 2.183l.014.618c-.321.768-.501.815-1.241 1.147q-.641.25-1.288.484l-.677.258a83 83 0 0 1-6.057 1.992l-.5-.5.33-.627c.972-1.92 1.685-3.841 2.248-5.92l.183-.673c.722-2.772 1.064-5.481 1.145-8.342l.029-.863q.035-1.038.065-2.075" fill="#383075"/><path d="m105.656 163.688.522.002c3.736.015 7.429.182 11.072 1.061v.5l-.416.045c-17.052 1.656-17.052 1.656-33.63 5.759-.704.195-.704.195-1.204-.055 4.864-3.268 10.171-5.853 16-6.75l.857-.135c2.276-.332 4.496-.444 6.799-.428" fill="#1c799c"/><path d="M197.5 62.25c2.036 1.538 3.592 3.638 5 5.75-.048 2.482-1.031 5.276-2.5 7.25-1.036.915-1.869 1.175-3.22 1.115-.87-.189-1.264-.671-1.78-1.365-1.374-4.122.947-8.983 2.5-12.75" fill="#031c3a"/><path d="M75.5 94.5c1.739 1.208 3.212 2.635 4.697 4.133a243 243 0 0 0 1.231 1.228c1.84 1.837 3.624 3.719 5.072 5.89l-.733-.155-.986-.204-.967-.202c-1.18-.227-2.369-.336-3.564-.439l.719 2.438.204.698.2.673.182.619c.18.577.18.577.468 1.1.227.471.227.471.227 1.221l-3.75.25a1067 1067 0 0 1-1.625-2.594l-.47-.746-.444-.713-.412-.658c-.299-.539-.299-.539-.299-1.039q.516.108 1.031.219l.58.123c.728.18 1.429.418 2.139.658l-.191-.564c-3.125-9.261-3.125-9.261-3.309-11.936" fill="#b6437c"/><path d="M203 153.5v.5l-.931.066c-3.095.239-6.134.663-9.195 1.179-2.353.394-4.71.722-7.076 1.025-4.395.565-8.732 1.335-13.078 2.196-1.485.292-2.975.548-4.471.784 3.41-3.68 9.469-4.603 14.19-5.404q.697-.12 1.391-.25c6.417-1.163 12.733-1.077 19.169-.096" fill="#1d799c"/><path d="m197.5 194.5.547.563c.677.689.677.689 1.391 1.219.562.468.562.468.812 1.218l-2.24 2.254-.759.764c-1.454 1.466-2.919 2.902-4.501 4.232l-.719.61c-.531.39-.531.39-1.031.39-.698-2.095-.416-4.655.436-6.658.967-1.825 2.236-2.701 4.064-3.592l.589-.299a129 129 0 0 1 1.411-.701" fill="#362f74"/><path d="m173.578 163.938.88.006c7.269.09 15.037 1.46 21.542 4.807-.757.252-1.029.254-1.79.141l-.638-.092-.695-.105-.728-.106a644 644 0 0 1-2.368-.353l-1.637-.242a708 708 0 0 1-11.074-1.741 292 292 0 0 0-8.32-1.251v-.5c1.609-.58 3.13-.577 4.828-.563" fill="#1d7a9c"/><path d="M122.75 174.25c1.452.171 2.825.508 4.234.891l.662.177q.802.215 1.603.432c-.402 1.867-1.085 3.6-1.781 5.375l-.354.912q-.43 1.107-.864 2.213h-.5c-1.738-3.213-2.865-6.299-3-10" fill="#ededd8"/><path d="m152.5 173.75.877.265 1.154.345.576.174c1.044.31 2.061.566 3.143.716-.564 3.134-2.196 5.839-4.5 8l-.75.5-.019-.514c-.118-3.165-.239-6.327-.481-9.486" fill="#ebebd4"/><path d="m80.25 120 .5 4c-4.078.627-8.136.549-12.25.5.737-.599 1.444-.973 2.324-1.326l.783-.316.83-.327.846-.336C78.879 120 78.879 120 80.25 120" fill="#1d7a9c"/><path d="M167.75 177.75c0 .927-.267 1.288-.743 2.08l-.489.819-.534.882-.542.906-1.127 1.875q-.814 1.351-1.621 2.704c-2.639 4.412-2.639 4.412-3.944 6.484-.5-.5-.5-.5-.609-1.453.155-5.686 5.819-10.607 9.609-14.297" fill="#3c3379"/><path d="M114.75 101c4.481 1.632 7.825 6.576 9.922 10.656l.266.511c.58 1.183.58 1.183.488 1.948l-.176.385a50 50 0 0 1-4.75-5.25l-.582-.73c-1.298-1.651-2.511-3.351-3.699-5.083l-.44-.641c-1.029-1.514-1.029-1.514-1.029-1.796" fill="#3c337a"/><path d="M123.75 197.25c.641.641.848 1.355 1.156 2.188.602 1.578 1.335 3.019 2.208 4.464.636 1.055.636 1.055.636 1.598-1.95.225-3.367-.456-5-1.5-.797-.816-1.058-1.45-1.156-2.563.066-1.621 1.032-3.064 2.156-4.188" fill="#ececd8"/><path d="M150 103h.25c-.111 2.075-.509 3.985-1.063 5.984l-.218.826a33.8 33.8 0 0 1-2.72 6.94h-.25c-.166-4.825 1.236-9.406 3.75-13.5z" fill="#3b3278"/><path d="M180.5 97c.346 1.04.071 1.896-.156 2.938l-.138.641c-.597 2.67-1.38 5.264-2.706 7.671h-.25c-.022-1.288.038-2.48.25-3.75-.705.552-1.383 1.1-2 1.75.559-3.398 3.133-6.452 5-9.25" fill="#b9437d"/><path d="M131.75 102.75c3.49 2.958 5.093 9.155 5.466 13.539l.034.461c-.932-.81-1.418-1.715-1.906-2.828l-.252-.568c-.863-2.028-1.542-4.117-2.217-6.213l-.171-.528c-.954-2.968-.954-2.968-.954-3.863" fill="#3d337a"/><path d="M195.25 153c2.635-.068 5.145.117 7.75.5v.5q-1.32.127-2.64.25l-.75.072c-1.293.12-2.561.207-3.859.177v-.25l1.25-.25v-.5l-1.75-.25z" fill="#1e82a4"/><path d="M177.5 46.5c.99.358 1.822.833 2.703 1.406l.739.478.558.366-1 .25-.25 1.25a13 13 0 0 1-1.266-1.922c-.389-.837-.389-.837-.985-1.078l-.039.406c-.222 1.532-.745 2.813-1.43 4.188l-.258.522c-.485.944-.963 1.675-1.774 2.384a17 17 0 0 1 .969-2.142c1.078-2.018 1.855-3.787 2.031-6.109" fill="#252b71"/><path d="m112.75 144.5.25.5-1 1.75h7.5c-1.663 1.109-4.092.783-6.031.766l-.725-.004q-.872-.004-1.744-.012c.431-1.165 1.011-2.008 1.75-3" fill="#02132f"/><path d="M92.75 180.25H94v.75c.344.38.344.38.82.743a39 39 0 0 1 2.578 2.381l.364.365 1.112 1.12.767.771q.93.934 1.857 1.87l-.25.5-.619-.623-2.289-2.299-.988-.993-1.426-1.432-.441-.444a28 28 0 0 0-2.092-1.922l-.643-.537z" fill="#413580"/><path d="m173.359 163.969.771.007q.935.009 1.87.025v.25l-4.25.25-.25.5.813-.031c.882.029 1.203.118 1.938.531-1.888.075-3.647-.143-5.5-.5v-.5c1.551-.552 2.974-.559 4.609-.531" fill="#1f86a8"/><path d="m192.75 29.5-.146.459c-.967 3.111-1.227 6.05-1.353 9.291h-.25c-.747-2.893.013-6.24 1-9l-1 .25c.957-1 .957-1 1.75-1" fill="#a42363"/><path d="M153 176.25h.25l.5 6.25 1.25-1c-.429 1.158-.913 1.344-2 2.25z" fill="#f2f3e7"/><path d="M126.75 54.5c.813 1.084.842 1.292.823 2.574l-.007.913-.019.95-.011.962q-.013 1.175-.036 2.35h-.75z" fill="#943d70"/><path d="M192 167.25c.988.157 1.8.466 2.703.891l.739.344.558.265c-1.147.383-2.195.097-3.375-.078l-.73-.099-.7-.101-.64-.092c-.555-.13-.555-.13-1.305-.63h3z" fill="#2085a7"/><path d="M173 96.5h.25v4.75l.75-1c-.144 1.189-.637 1.992-1.25 3h-.25c-.09-4.981-.09-4.981.5-6.75" fill="#423580"/><path d="M155.75 140.25c.656.63 1.254 1.293 1.844 1.984 1.081 1.242 2.209 2.207 3.656 3.015-.918.306-1.144.135-2-.25l-.75-.25v-.75a26 26 0 0 0-.872-.867c-1.878-1.901-1.878-1.901-1.878-2.882" fill="#1e7d9f"/><path d="M148.25 110.5c.29 1.161.141 1.479-.297 2.563l-.35.866a39 39 0 0 1-1.353 2.821H146c-.026-1.282-.009-2.487.25-3.75h.25l.25 1.5z" fill="#443582"/><path d="M50.75 102.75c1.179.163 2.144.629 3.203 1.141l.525.249q.636.303 1.272.61l-.5-1.5c.743.636 1.119 1.355 1.5 2.25l-.25.5a848 848 0 0 1-2.313-1.203l-.661-.343-.639-.335-.587-.305a13 13 0 0 1-1.55-1.065" fill="#443682"/><path d="M75.5 94.5c1.273.891 2.307 1.762 3.25 3-.859-.382-1.53-.9-2.25-1.5v2c-.656-.656-.646-1.122-.781-2.031l-.127-.83z" fill="#c84782"/><path d="m68.25 184.75.75.25c-3.408 2.639-3.408 2.639-5 3.75l-.5-.25c3.583-3.03 3.583-3.03 4.75-3.75" fill="#252e71"/><path d="M190.75 152.75H197v.25c-3.719.644-3.719.644-5.5.5z" fill="#196d8f"/><path d="M170.25 189h3.25v.5c-.383.323-.383.323-.875.656l-.492.338-.383.256-.188-.734-.312-.766z" fill="#3b3175"/><path d="m135 214.75.75.25.016.797c.162 1.411.906 2.531 1.61 3.739.374.714.374.714.374 1.464-1.333-1.813-2.75-3.941-2.75-6.25" fill="#cf4784"/><path d="m157.5 234 .5.25-.75.5h2.25c-.97.485-1.756.691-2.813.906l-.957.198-.73.146c.787-.804 1.48-1.504 2.5-2" fill="#a11e5d"/><path d="M204.5 184.75c.367.954.108 1.573-.25 2.5l-.25-.75-.25-.25-2 1.75-.5-.25.647-.593.837-.767.427-.391c.678-.615.678-.615 1.338-1.25" fill="#cf4a86"/><path d="m168 188.25.25.5h5.25v.25l-.466.042q-1.048.095-2.096.193l-.734.066-.708.066-.65.059c-.549.069-1.063.177-1.595.324.469-1.219.469-1.219.75-1.5" fill="#cf4681"/><path d="M123.75 158.25c.841.36 1.398.812 2 1.5v.5l-4-.25v-.25l3-.25z" fill="#02162c"/><path d="M94 93.5c.739.654 1.19 1.419 1.688 2.266l.48.805.332.679-.25.5c-.963-1.024-1.659-1.853-2-3.25l-.156-.594z" fill="#433581"/><path d="M51.75 15.5H52v4.75h-.25q-.126-.851-.25-1.703l-.141-.958c-.109-.839-.109-.839-.109-1.589z" fill="#a52665"/><path d="m152.5 173.75 4 1.25-.25.5-3.25-1v1.5h-.25z" fill="#f1f2e8"/><path d="m85.25 169 .25.5-.5.25.25.5q-.67.26-1.344.516l-.756.29c-.65.194-.65.194-1.15-.056l1.344-.859.756-.483c.65-.408.65-.408 1.15-.658" fill="#218baf"/><path d="M117.25 158c1.058.155 1.881.526 2.828 1.016l.809.415.613.319v.25c-.719.031-.719.031-1.5 0l-.5-.5c-.729-.486-1.464-.866-2.25-1.25z" fill="#1e89a6"/><path d="m117 225 .25.5-1.75 2 1.25.25v.25h-2.5l.531-.515c.788-.786 1.504-1.632 2.219-2.485" fill="#05142e"/><path d="M166.5 71.75h.5l-.5 1.5 1.25-.5c-.713.733-1.413 1.411-2.25 2z" fill="#c94984"/><path d="m188.5 223.75.5.25a210 210 0 0 1-.719 1.234l-.404.694c-.377.572-.377.572-.877.822l.25-.609c.265-.565.265-.565.25-.891l-1 .25a14.3 14.3 0 0 1 2-1.75" fill="#a42361"/><path d="M61.5 133c.741.702 1.361 1.296 1.75 2.25-1.207-.353-2.179-.858-3.25-1.5l.5-.25q.763.35 1.5.75z" fill="#ce4885"/><path d="M177.75 104.5c.138.519.25.961.25 1.5l.5-.5c-.152 1.032-.509 1.833-1 2.75h-.25c-.049-1.382.063-2.439.5-3.75" fill="#c74783"/><path d="m106 72.75 1 .75 1-.75c-.289.978-.589 1.719-1.25 2.5-.75-1.656-.75-1.656-.75-2.5" fill="#d04986"/><path d="M167.75 177.75c0 .853-.167 1.099-.625 1.797l-.351.542-.274.411-1-.5z" fill="#443682"/><path d="m187.75 173 .25.5q-.734.135-1.469.266l-.826.149C185 174 185 174 184.5 173.75c1.155-.555 1.942-.846 3.25-.75" fill="#c2457f"/><path d="M78.25 104.75c.412.742.611 1.414.75 2.25q-.54-.107-1.078-.219l-.607-.123C76.75 106.5 76.75 106.5 76 106c.5-.25.5-.25.986-.11l.545.22.549.218.42.172z" fill="#101734"/><path d="M88.75 94.5c.506.759.58 1.048.656 1.922l.057.612.037.466H89a31 31 0 0 1-1-1.5l.25-.5.25.25z" fill="#40347f"/><path d="m137.5 147.25.5.25-.25.75h-.5v2c-.5-.5-.5-.5-.578-1.359.078-.891.078-.891.453-1.375z" fill="#cc4884"/><path d="M213.391 56.984 214 57a194 194 0 0 1-.719 1.109l-.404.624c-.377.517-.377.517-.877.767q.116-.555.234-1.109l.132-.624c.195-.753.227-.762 1.024-.782" fill="#a42563"/><path d="M48.5 39.75h.5v3.5h-.25l-.25-1.75H48z" fill="#a42463"/><path d="m176.5 103.5.25.75.5.25-1.5 1.75c-.25-.75-.25-.75-.056-1.261l.29-.536.288-.542z" fill="#c24783"/><path d="m46.75 44 .5.75-.219.422c-.291.599-.54 1.207-.781 1.828H46c.214-2.143.214-2.143.75-3" fill="#a72c6c"/><path d="m176.5 203.75-.75 2.5-.25-.75c-.263-.289-.263-.289-.75-.5 1.188-1.25 1.188-1.25 1.75-1.25" fill="#d14986"/><path d="m122.75 174.25 1 .25-.5 2.75H123z" fill="#d8dbd1"/><path d="M85 103.75c.842.348 1.246.745 1.75 1.5l-.25.5-.75-.859-.422-.483C85 104 85 104 85 103.75m-.25 1.75 1.75.25c-.75.25-.75.25-1.297.016z" fill="#061630"/><path d="m166.25 98 .25.75 1.5-.5c-.546.602-1.065.949-1.797 1.297l-.542.261-.411.192c.281-.743.556-1.333 1-2" fill="#433682"/><path d="M139.25 62.5v.5h-.5l-.172.453c-.418.697-.85.951-1.578 1.297l-.5-.25a205 205 0 0 1 1.094-1l.615-.563c.541-.437.541-.437 1.041-.437" fill="#071732"/><path d="M154.5 48.75c-.727.314-1.199.5-2 .5v.5H151c1.027-.869 2.164-1.514 3.5-1" fill="#c6447e"/><path d="m153 47.5.25.75.688-.266c.814-.235 1.044-.223 1.813.015q-.53.2-1.063.391l-.598.22c-.638.151-.978.102-1.59-.11z" fill="#071731"/><path d="M178 47.25c.75.25.75.25 1.188.844.312.656.312.656.062 1.406l-.75-1.25-.75 1z" fill="#c8457d"/><path d="m86.25 203.75.25.5-1.25 1 .5.5-1.75-.25a8.6 8.6 0 0 1 2.25-1.75" fill="#d24785"/><path d="m200 193 .5.25a104 104 0 0 1-.953.875l-.536.492c-.511.383-.511.383-1.261.383.29-.871.477-.972 1.234-1.438l.538-.34z" fill="#071630"/><path d="M59 173.25v.75c.359.422.359.422.75.75l-.5.25a34 34 0 0 1-1.75-.75v-.5z" fill="#111936"/><path d="M153 77.5v.75c-.492.456-.492.456-1.125.922l-.633.471-.492.357-.5-.25z" fill="#061630"/><path d="M135.75 226.75c1.077.392 2.015.921 3 1.5v.25h-1.5v-.5a63 63 0 0 0-1.5-1z" fill="#c84a86"/><path d="M104.5 211.75c1.028.362 1.858.878 2.75 1.5l-.75.75-.156-.438c-.467-.763-1.096-1.091-1.844-1.563z" fill="#cb4884"/><path d="M30.5 138h.5v2.5l-.75-.25c-.025-1.538-.025-1.538 0-2z" fill="#453e7d"/><path d="m169.5 158 .25.5 1 .25-2.5.5z" fill="#208bad"/><path d="M158.75 144c.898.334 1.689.74 2.5 1.25-.918.306-1.144.135-2-.25l-.75-.25z" fill="#2085a7"/><path d="m198 94.25.25.5-.25.75.5.25c-.594.391-.594.391-1.25.75l-.5-.25z" fill="#0a1633"/><path d="M177.5 46.5c.844.296 1.412.569 2 1.25-.542-.127-1-.25-1.5-.5V48h-.5z" fill="#211f67"/><path d="m141.5 152.25.75.25q-.402.325-.813.641l-.457.36c-.48.249-.48.249-1.039.163l-.441-.164.25-.5q.498-.133 1-.25z" fill="#cc4683"/><path d="m139.25 181.25 1.75.25-.5.5c.08.527.08.527.25 1-1.219-1.188-1.219-1.188-1.5-1.75" fill="#ce4a87"/><path d="m195.5 168.5.5.5q-.547-.043-1.094-.094l-.615-.052c-.541-.104-.541-.104-1.041-.604.951-.317 1.338-.119 2.25.25" fill="#238eb0"/><path d="m75.25 106 1.25.25V108c-.7-.632-1.115-1.051-1.25-2" fill="#cc4984"/><path d="m170.5 91 .25.5c-.452.904-1.013 1.564-1.75 2.25.362-1.028.878-1.858 1.5-2.75" fill="#423580"/><path d="M80 185c.844.296 1.412.569 2 1.25l-1.5.25.5-.25z" fill="#d54a88"/><path d="m138.5 131.5.75.25-.75.25v.5l-1.25.5c.343-.79.497-.998 1.25-1.5" fill="#02132e"/><path d="m146.75 57.25.5.25-.5 1.25H146l-.25-1c.469-.266.469-.266 1-.5" fill="#0f1a37"/><path d="M106.5 187.5c.59.59.623.945.75 1.75-1.219-.688-1.219-.688-1.5-1.25h.5z" fill="#03182e"/></svg>